<svg width="114" height="114" viewBox="0 0 114 114" fill="none" xmlns="http://www.w3.org/2000/svg">
<circle cx="57.3809" cy="56.6226" r="56.5" fill="white"/>
<rect x="85.4424" y="19" width="7" height="93" transform="rotate(40.5353 85.4424 19)" fill="black"/>
<path d="M54 54C55.6471 56.3333 61 60.5 61 60.5C59 61 54 56.5 54 54Z" fill="white"/>
<path d="M52.978 34.2952C60.4927 26.7806 48.6795 50.7774 56.1941 58.292C63.7087 65.8066 87.7055 53.9935 80.1909 61.5081C72.6763 69.0227 60.4927 69.0227 52.978 61.5081C45.4634 53.9935 45.4634 41.8098 52.978 34.2952Z" fill="black"/>
<path d="M63.7812 78.8219C56.6859 86.7336 67.1781 62.1306 59.2664 55.0352C51.3547 47.9399 28.035 61.0392 35.1303 53.1275C42.2256 45.2157 54.3913 44.5539 62.303 51.6492C70.2147 58.7445 70.8766 70.9102 63.7812 78.8219Z" fill="black"/>
</svg>
