<svg width="40" height="41" viewBox="0 0 40 41" fill="none" xmlns="http://www.w3.org/2000/svg">
<path d="M10.5439 5.57315C10.3481 1.13155 16.1231 -0.750363 18.5817 2.95389V2.95389C22.2284 8.44809 28.4869 11.6302 35.0747 11.3397V11.3397C39.5164 11.1438 41.3983 16.9188 37.694 19.3774V19.3774C32.1998 23.0241 29.0177 29.2826 29.3082 35.8705V35.8705C29.5041 40.3121 23.7291 42.194 21.2705 38.4897V38.4897C17.6238 32.9955 11.3653 29.8134 4.77743 30.104V30.104C0.335817 30.2998 -1.54609 24.5248 2.15816 22.0662V22.0662C7.65236 18.4195 10.8345 12.161 10.5439 5.57315V5.57315Z" fill="white"/>
</svg>
