<svg width="58" height="58" viewBox="0 0 58 58" fill="none" xmlns="http://www.w3.org/2000/svg">
<path d="M19.3578 1.77058C19.3132 0.758114 20.6296 0.329132 21.19 1.17352L33.4968 19.7155C33.6908 20.0077 34.0237 20.1769 34.3741 20.1615L56.6069 19.181C57.6194 19.1364 58.0484 20.4528 57.204 21.0132L38.6621 33.32C38.3698 33.514 38.2006 33.8469 38.216 34.1973L39.1965 56.4301C39.2411 57.4426 37.9247 57.8716 37.3643 57.0272L25.0575 38.4852C24.8635 38.193 24.5306 38.0238 24.1802 38.0392L1.94738 39.0197C0.93492 39.0643 0.505938 37.7479 1.35032 37.1875L19.8923 24.8807C20.1845 24.6867 20.3537 24.3538 20.3383 24.0034L19.3578 1.77058Z" fill="white"/>
</svg>
