<svg width="31" height="31" viewBox="0 0 31 31" fill="none" xmlns="http://www.w3.org/2000/svg">
<path d="M10.9474 1.10558C10.9792 0.115237 12.2945 -0.204935 12.778 0.659962V0.659962C16.2005 6.78255 22.5805 10.6645 29.5912 10.8901V10.8901C30.5815 10.922 30.9017 12.2373 30.0368 12.7207V12.7207C23.9142 16.1433 20.0322 22.5233 19.8066 29.5339V29.5339C19.7748 30.5243 18.4595 30.8444 17.976 29.9795V29.9795C14.5535 23.8569 8.17346 19.975 1.16282 19.7494V19.7494C0.172478 19.7175 -0.147694 18.4022 0.717203 17.9188V17.9188C6.8398 14.4962 10.7218 8.11622 10.9474 1.10558V1.10558Z" fill="white"/>
</svg>
